<?xml version="1.0" encoding="UTF-8" standalone="no"?>
<!DOCTYPE svg PUBLIC "-//W3C//DTD SVG 1.1//EN"
 "http://www.w3.org/Graphics/SVG/1.1/DTD/svg11.dtd">
<!-- Generated by graphviz version 2.30.1 (20180828.1746)
 -->
<!-- Title: %3 Pages: 1 -->
<svg width="589pt" height="404pt"
 viewBox="0.00 0.00 589.00 404.00" xmlns="http://www.w3.org/2000/svg" xmlns:xlink="http://www.w3.org/1999/xlink">
<g id="graph0" class="graph" transform="scale(1 1) rotate(0) translate(4 400)">
<title>%3</title>
<polygon fill="white" stroke="white" points="-4,5 -4,-400 586,-400 586,5 -4,5"/>
<!-- [root] aws_eip.lb -->
<g id="node1" class="node"><title>[root] aws_eip.lb</title>
<polygon fill="none" stroke="black" points="363.25,-180 288.75,-180 288.75,-144 363.25,-144 363.25,-180"/>
<text text-anchor="middle" x="326" y="-158.3" font-family="Times,serif" font-size="14.00">aws_eip.lb</text>
</g>
<!-- [root] aws_instance.base -->
<g id="node2" class="node"><title>[root] aws_instance.base</title>
<polygon fill="none" stroke="black" points="384,-108 268,-108 268,-72 384,-72 384,-108"/>
<text text-anchor="middle" x="326" y="-86.3" font-family="Times,serif" font-size="14.00">aws_instance.base</text>
</g>
<!-- [root] aws_eip.lb&#45;&gt;[root] aws_instance.base -->
<g id="edge1" class="edge"><title>[root] aws_eip.lb&#45;&gt;[root] aws_instance.base</title>
<path fill="none" stroke="black" d="M326,-143.697C326,-135.983 326,-126.712 326,-118.112"/>
<polygon fill="black" stroke="black" points="329.5,-118.104 326,-108.104 322.5,-118.104 329.5,-118.104"/>
</g>
<!-- [root] provider.aws -->
<g id="node4" class="node"><title>[root] provider.aws</title>
<polygon fill="none" stroke="black" points="326,-36 246.55,-18 326,-3.55271e-15 405.45,-18 326,-36"/>
<text text-anchor="middle" x="326" y="-14.3" font-family="Times,serif" font-size="14.00">provider.aws</text>
</g>
<!-- [root] aws_instance.base&#45;&gt;[root] provider.aws -->
<g id="edge2" class="edge"><title>[root] aws_instance.base&#45;&gt;[root] provider.aws</title>
<path fill="none" stroke="black" d="M326,-71.6966C326,-63.9827 326,-54.7125 326,-46.1124"/>
<polygon fill="black" stroke="black" points="329.5,-46.1043 326,-36.1043 322.5,-46.1044 329.5,-46.1043"/>
</g>
<!-- [root] aws_security_group.allowtls -->
<g id="node3" class="node"><title>[root] aws_security_group.allowtls</title>
<polygon fill="none" stroke="black" points="412,-252 240,-252 240,-216 412,-216 412,-252"/>
<text text-anchor="middle" x="326" y="-230.3" font-family="Times,serif" font-size="14.00">aws_security_group.allowtls</text>
</g>
<!-- [root] aws_security_group.allowtls&#45;&gt;[root] aws_eip.lb -->
<g id="edge3" class="edge"><title>[root] aws_security_group.allowtls&#45;&gt;[root] aws_eip.lb</title>
<path fill="none" stroke="black" d="M326,-215.697C326,-207.983 326,-198.712 326,-190.112"/>
<polygon fill="black" stroke="black" points="329.5,-190.104 326,-180.104 322.5,-190.104 329.5,-190.104"/>
</g>
<!-- [root] meta.count&#45;boundary (EachMode fixup) -->
<g id="node5" class="node"><title>[root] meta.count&#45;boundary (EachMode fixup)</title>
<ellipse fill="none" stroke="black" cx="176" cy="-306" rx="176.177" ry="18"/>
<text text-anchor="middle" x="176" y="-302.3" font-family="Times,serif" font-size="14.00">[root] meta.count&#45;boundary (EachMode fixup)</text>
</g>
<!-- [root] meta.count&#45;boundary (EachMode fixup)&#45;&gt;[root] aws_security_group.allowtls -->
<g id="edge4" class="edge"><title>[root] meta.count&#45;boundary (EachMode fixup)&#45;&gt;[root] aws_security_group.allowtls</title>
<path fill="none" stroke="black" d="M211.929,-288.233C232.405,-278.678 258.272,-266.606 280.195,-256.375"/>
<polygon fill="black" stroke="black" points="281.741,-259.517 289.322,-252.116 278.78,-253.173 281.741,-259.517"/>
</g>
<!-- [root] provider.aws (close) -->
<g id="node6" class="node"><title>[root] provider.aws (close)</title>
<ellipse fill="none" stroke="black" cx="476" cy="-306" rx="104.937" ry="18"/>
<text text-anchor="middle" x="476" y="-302.3" font-family="Times,serif" font-size="14.00">[root] provider.aws (close)</text>
</g>
<!-- [root] provider.aws (close)&#45;&gt;[root] aws_security_group.allowtls -->
<g id="edge5" class="edge"><title>[root] provider.aws (close)&#45;&gt;[root] aws_security_group.allowtls</title>
<path fill="none" stroke="black" d="M441.587,-288.941C420.926,-279.299 394.384,-266.912 371.945,-256.441"/>
<polygon fill="black" stroke="black" points="373.151,-253.142 362.609,-252.084 370.191,-259.485 373.151,-253.142"/>
</g>
<!-- [root] root -->
<g id="node7" class="node"><title>[root] root</title>
<ellipse fill="none" stroke="black" cx="326" cy="-378" rx="47.169" ry="18"/>
<text text-anchor="middle" x="326" y="-374.3" font-family="Times,serif" font-size="14.00">[root] root</text>
</g>
<!-- [root] root&#45;&gt;[root] meta.count&#45;boundary (EachMode fixup) -->
<g id="edge6" class="edge"><title>[root] root&#45;&gt;[root] meta.count&#45;boundary (EachMode fixup)</title>
<path fill="none" stroke="black" d="M297.078,-363.503C275.489,-353.428 245.581,-339.471 220.893,-327.95"/>
<polygon fill="black" stroke="black" points="222.256,-324.724 211.714,-323.667 219.296,-331.067 222.256,-324.724"/>
</g>
<!-- [root] root&#45;&gt;[root] provider.aws (close) -->
<g id="edge7" class="edge"><title>[root] root&#45;&gt;[root] provider.aws (close)</title>
<path fill="none" stroke="black" d="M354.922,-363.503C376.889,-353.252 407.467,-338.982 432.397,-327.348"/>
<polygon fill="black" stroke="black" points="434.064,-330.433 441.646,-323.032 431.104,-324.089 434.064,-330.433"/>
</g>
</g>
</svg>
